<svg xmlns="http://www.w3.org/2000/svg" width="802" height="759">
<image href="image1.png" x="131" y="120" width="519" height="540" />  <circle cx="390" cy="390" r="10" stroke="red" fill="none" />
  <circle cx="390" cy="390" r="20" stroke="red" fill="none" />
  <circle cx="390" cy="390" r="30" stroke="red" fill="none" />
  <circle cx="390" cy="390" r="40" stroke="red" fill="none" />
  <circle cx="390" cy="390" r="50" stroke="red" fill="none" />
  <circle cx="390" cy="390" r="60" stroke="red" fill="none" />
  <circle cx="390" cy="390" r="70" stroke="red" fill="none" />
  <circle cx="390" cy="390" r="80" stroke="red" fill="none" />
  <circle cx="390" cy="390" r="90" stroke="red" fill="none" />
  <circle cx="390" cy="390" r="100" stroke="red" fill="none" />
  <circle cx="390" cy="390" r="110" stroke="red" fill="none" />
  <circle cx="390" cy="390" r="120" stroke="red" fill="none" />
  <circle cx="390" cy="390" r="130" stroke="red" fill="none" />
  <circle cx="390" cy="390" r="140" stroke="red" fill="none" />
  <circle cx="390" cy="390" r="150" stroke="red" fill="none" />
  <circle cx="390" cy="390" r="160" stroke="red" fill="none" />
  <circle cx="390" cy="390" r="170" stroke="red" fill="none" />
  <circle cx="390" cy="390" r="180" stroke="red" fill="none" />
  <circle cx="390" cy="390" r="190" stroke="red" fill="none" />
  <circle cx="390" cy="390" r="200" stroke="red" fill="none" />
  <circle cx="390" cy="390" r="210" stroke="red" fill="none" />
  <circle cx="390" cy="390" r="220" stroke="red" fill="none" />
  <circle cx="390" cy="390" r="230" stroke="red" fill="none" />
  <circle cx="390" cy="390" r="240" stroke="red" fill="none" />
  <circle cx="390" cy="390" r="250" stroke="red" fill="none" />
  <circle cx="390" cy="390" r="260" stroke="red" fill="none" />
  <circle cx="390" cy="390" r="270" stroke="red" fill="none" />
  <circle cx="390" cy="390" r="280" stroke="red" fill="none" />
  <circle cx="390" cy="390" r="290" stroke="red" fill="none" />
  <circle cx="390" cy="390" r="300" stroke="red" fill="none" />
  <circle cx="390" cy="390" r="310" stroke="red" fill="none" />
  <circle cx="390" cy="390" r="320" stroke="red" fill="none" />
  <circle cx="390" cy="390" r="330" stroke="red" fill="none" />
  <circle cx="390" cy="390" r="340" stroke="red" fill="none" />
  <circle cx="390" cy="390" r="350" stroke="red" fill="none" />
  <circle cx="390" cy="390" r="360" stroke="red" fill="none" />
  <circle cx="390" cy="390" r="370" stroke="red" fill="none" />
  <circle cx="390" cy="390" r="380" stroke="red" fill="none" />
  <circle cx="390" cy="390" r="390" stroke="red" fill="none" />
<line x1="390" y1="390" x2="780.0" y2="390.0" stroke="black" stroke-width="2"/><line x1="390" y1="390" x2="727.7499074759311" y2="585.0" stroke="black" stroke-width="2"/><line x1="390" y1="390" x2="585.0" y2="727.749907475931" stroke="black" stroke-width="2"/><line x1="390" y1="390" x2="390.0" y2="780.0" stroke="black" stroke-width="2"/><line x1="390" y1="390" x2="195.00000000000006" y2="727.7499074759311" stroke="black" stroke-width="2"/><line x1="390" y1="390" x2="52.25009252406892" y2="585.0" stroke="black" stroke-width="2"/><line x1="390" y1="390" x2="0.0" y2="390.00000000000006" stroke="black" stroke-width="2"/><line x1="390" y1="390" x2="52.250092524068975" y2="194.99999999999994" stroke="black" stroke-width="2"/><line x1="390" y1="390" x2="194.99999999999983" y2="52.25009252406903" stroke="black" stroke-width="2"/><line x1="390" y1="390" x2="389.99999999999994" y2="0.0" stroke="black" stroke-width="2"/><line x1="390" y1="390" x2="585.0" y2="52.250092524068975" stroke="black" stroke-width="2"/><line x1="390" y1="390" x2="727.749907475931" y2="194.99999999999983" stroke="black" stroke-width="2"/>  <circle cx="400.0" cy="390.0" r="2" stroke="green" fill="green" />
  <circle cx="398.66025403784437" cy="395.0" r="2" stroke="green" fill="green" />
  <circle cx="395.0" cy="398.66025403784437" r="2" stroke="green" fill="green" />
  <circle cx="390.0" cy="400.0" r="2" stroke="green" fill="green" />
  <circle cx="385.0" cy="398.66025403784437" r="2" stroke="green" fill="green" />
  <circle cx="381.33974596215563" cy="395.0" r="2" stroke="green" fill="green" />
  <circle cx="380.0" cy="390.0" r="2" stroke="green" fill="green" />
  <circle cx="381.33974596215563" cy="385.0" r="2" stroke="green" fill="green" />
  <circle cx="385.0" cy="381.33974596215563" r="2" stroke="green" fill="green" />
  <circle cx="390.0" cy="380.0" r="2" stroke="green" fill="green" />
  <circle cx="395.0" cy="381.33974596215563" r="2" stroke="green" fill="green" />
  <circle cx="398.66025403784437" cy="385.0" r="2" stroke="green" fill="green" />
  <circle cx="410.0" cy="390.0" r="2" stroke="green" fill="green" />
  <circle cx="407.3205080756888" cy="400.0" r="2" stroke="green" fill="green" />
  <circle cx="400.0" cy="407.3205080756888" r="2" stroke="green" fill="green" />
  <circle cx="390.0" cy="410.0" r="2" stroke="green" fill="green" />
  <circle cx="380.0" cy="407.3205080756888" r="2" stroke="green" fill="green" />
  <circle cx="372.6794919243112" cy="400.0" r="2" stroke="green" fill="green" />
  <circle cx="370.0" cy="390.0" r="2" stroke="green" fill="green" />
  <circle cx="372.6794919243112" cy="380.0" r="2" stroke="green" fill="green" />
  <circle cx="380.0" cy="372.6794919243112" r="2" stroke="green" fill="green" />
  <circle cx="390.0" cy="370.0" r="2" stroke="green" fill="green" />
  <circle cx="400.0" cy="372.6794919243112" r="2" stroke="green" fill="green" />
  <circle cx="407.3205080756888" cy="380.0" r="2" stroke="green" fill="green" />
  <circle cx="420.0" cy="390.0" r="2" stroke="green" fill="green" />
  <circle cx="415.98076211353316" cy="405.0" r="2" stroke="green" fill="green" />
  <circle cx="405.0" cy="415.98076211353316" r="2" stroke="green" fill="green" />
  <circle cx="390.0" cy="420.0" r="2" stroke="green" fill="green" />
  <circle cx="375.0" cy="415.98076211353316" r="2" stroke="green" fill="green" />
  <circle cx="364.01923788646684" cy="405.0" r="2" stroke="green" fill="green" />
  <circle cx="360.0" cy="390.0" r="2" stroke="green" fill="green" />
  <circle cx="364.01923788646684" cy="375.0" r="2" stroke="green" fill="green" />
  <circle cx="375.0" cy="364.01923788646684" r="2" stroke="green" fill="green" />
  <circle cx="390.0" cy="360.0" r="2" stroke="green" fill="green" />
  <circle cx="405.0" cy="364.01923788646684" r="2" stroke="green" fill="green" />
  <circle cx="415.98076211353316" cy="375.0" r="2" stroke="green" fill="green" />
  <circle cx="430.0" cy="390.0" r="2" stroke="green" fill="green" />
  <circle cx="424.6410161513775" cy="410.0" r="2" stroke="green" fill="green" />
  <circle cx="410.0" cy="424.6410161513775" r="2" stroke="green" fill="green" />
  <circle cx="390.0" cy="430.0" r="2" stroke="green" fill="green" />
  <circle cx="370.0" cy="424.6410161513775" r="2" stroke="green" fill="green" />
  <circle cx="355.3589838486225" cy="410.0" r="2" stroke="green" fill="green" />
  <circle cx="350.0" cy="390.0" r="2" stroke="green" fill="green" />
  <circle cx="355.3589838486225" cy="370.0" r="2" stroke="green" fill="green" />
  <circle cx="370.0" cy="355.3589838486225" r="2" stroke="green" fill="green" />
  <circle cx="390.0" cy="350.0" r="2" stroke="green" fill="green" />
  <circle cx="410.0" cy="355.3589838486225" r="2" stroke="green" fill="green" />
  <circle cx="424.6410161513775" cy="370.0" r="2" stroke="green" fill="green" />
  <circle cx="440.0" cy="390.0" r="2" stroke="green" fill="green" />
  <circle cx="433.30127018922195" cy="415.0" r="2" stroke="blue" fill="blue" />
  <circle cx="415.0" cy="433.30127018922195" r="2" stroke="blue" fill="blue" />
  <circle cx="390.0" cy="440.0" r="2" stroke="green" fill="green" />
  <circle cx="365.0" cy="433.30127018922195" r="2" stroke="green" fill="green" />
  <circle cx="346.69872981077805" cy="415.0" r="2" stroke="green" fill="green" />
  <circle cx="340.0" cy="390.0" r="2" stroke="green" fill="green" />
  <circle cx="346.69872981077805" cy="365.0" r="2" stroke="green" fill="green" />
  <circle cx="365.0" cy="346.6987298107781" r="2" stroke="green" fill="green" />
  <circle cx="390.0" cy="340.0" r="2" stroke="blue" fill="blue" />
  <circle cx="415.0" cy="346.69872981077805" r="2" stroke="blue" fill="blue" />
  <circle cx="433.3012701892219" cy="365.0" r="2" stroke="green" fill="green" />
  <circle cx="450.0" cy="390.0" r="2" stroke="blue" fill="blue" />
  <circle cx="441.9615242270663" cy="420.0" r="2" stroke="blue" fill="blue" />
  <circle cx="420.0" cy="441.9615242270663" r="2" stroke="blue" fill="blue" />
  <circle cx="390.0" cy="450.0" r="2" stroke="green" fill="green" />
  <circle cx="360.0" cy="441.9615242270663" r="2" stroke="green" fill="green" />
  <circle cx="338.0384757729337" cy="420.0" r="2" stroke="green" fill="green" />
  <circle cx="330.0" cy="390.0" r="2" stroke="green" fill="green" />
  <circle cx="338.0384757729337" cy="360.0" r="2" stroke="green" fill="green" />
  <circle cx="360.0" cy="338.0384757729337" r="2" stroke="green" fill="green" />
  <circle cx="390.0" cy="330.0" r="2" stroke="blue" fill="blue" />
  <circle cx="420.0" cy="338.0384757729337" r="2" stroke="blue" fill="blue" />
  <circle cx="441.9615242270663" cy="360.0" r="2" stroke="green" fill="green" />
  <circle cx="460.0" cy="390.0" r="2" stroke="blue" fill="blue" />
  <circle cx="450.6217782649107" cy="425.0" r="2" stroke="blue" fill="blue" />
  <circle cx="425.0" cy="450.6217782649107" r="2" stroke="blue" fill="blue" />
  <circle cx="390.0" cy="460.0" r="2" stroke="blue" fill="blue" />
  <circle cx="355.0" cy="450.6217782649107" r="2" stroke="green" fill="green" />
  <circle cx="329.3782217350893" cy="425.0" r="2" stroke="green" fill="green" />
  <circle cx="320.0" cy="390.0" r="2" stroke="green" fill="green" />
  <circle cx="329.3782217350893" cy="355.0" r="2" stroke="green" fill="green" />
  <circle cx="355.0" cy="329.3782217350893" r="2" stroke="blue" fill="blue" />
  <circle cx="390.0" cy="320.0" r="2" stroke="blue" fill="blue" />
  <circle cx="425.0" cy="329.3782217350893" r="2" stroke="blue" fill="blue" />
  <circle cx="450.6217782649107" cy="355.0" r="2" stroke="blue" fill="blue" />
  <circle cx="470.0" cy="390.0" r="2" stroke="blue" fill="blue" />
  <circle cx="459.2820323027551" cy="430.0" r="2" stroke="blue" fill="blue" />
  <circle cx="430.0" cy="459.28203230275506" r="2" stroke="blue" fill="blue" />
  <circle cx="390.0" cy="470.0" r="2" stroke="blue" fill="blue" />
  <circle cx="350.0" cy="459.2820323027551" r="2" stroke="green" fill="green" />
  <circle cx="320.7179676972449" cy="430.0" r="2" stroke="green" fill="green" />
  <circle cx="310.0" cy="390.0" r="2" stroke="green" fill="green" />
  <circle cx="320.71796769724494" cy="350.0" r="2" stroke="green" fill="green" />
  <circle cx="349.99999999999994" cy="320.71796769724494" r="2" stroke="blue" fill="blue" />
  <circle cx="390.0" cy="310.0" r="2" stroke="blue" fill="blue" />
  <circle cx="430.0" cy="320.71796769724494" r="2" stroke="blue" fill="blue" />
  <circle cx="459.28203230275506" cy="349.99999999999994" r="2" stroke="blue" fill="blue" />
  <circle cx="480.0" cy="390.0" r="2" stroke="blue" fill="blue" />
  <circle cx="467.9422863405995" cy="435.0" r="2" stroke="blue" fill="blue" />
  <circle cx="435.0" cy="467.9422863405995" r="2" stroke="blue" fill="blue" />
  <circle cx="390.0" cy="480.0" r="2" stroke="blue" fill="blue" />
  <circle cx="345.0" cy="467.9422863405995" r="2" stroke="green" fill="green" />
  <circle cx="312.0577136594005" cy="435.0" r="2" stroke="green" fill="green" />
  <circle cx="300.0" cy="390.0" r="2" stroke="green" fill="green" />
  <circle cx="312.0577136594005" cy="345.0" r="2" stroke="green" fill="green" />
  <circle cx="344.99999999999994" cy="312.0577136594005" r="2" stroke="blue" fill="blue" />
  <circle cx="390.0" cy="300.0" r="2" stroke="blue" fill="blue" />
  <circle cx="435.0" cy="312.0577136594005" r="2" stroke="blue" fill="blue" />
  <circle cx="467.9422863405995" cy="344.99999999999994" r="2" stroke="blue" fill="blue" />
  <circle cx="490.0" cy="390.0" r="2" stroke="blue" fill="blue" />
  <circle cx="476.6025403784439" cy="440.0" r="2" stroke="blue" fill="blue" />
  <circle cx="440.0" cy="476.60254037844385" r="2" stroke="blue" fill="blue" />
  <circle cx="390.0" cy="490.0" r="2" stroke="blue" fill="blue" />
  <circle cx="340.0" cy="476.6025403784439" r="2" stroke="green" fill="green" />
  <circle cx="303.3974596215561" cy="440.0" r="2" stroke="green" fill="green" />
  <circle cx="290.0" cy="390.0" r="2" stroke="green" fill="green" />
  <circle cx="303.39745962155615" cy="340.0" r="2" stroke="green" fill="green" />
  <circle cx="339.99999999999994" cy="303.39745962155615" r="2" stroke="blue" fill="blue" />
  <circle cx="390.0" cy="290.0" r="2" stroke="blue" fill="blue" />
  <circle cx="440.0" cy="303.39745962155615" r="2" stroke="blue" fill="blue" />
  <circle cx="476.60254037844385" cy="339.99999999999994" r="2" stroke="blue" fill="blue" />
  <circle cx="500.0" cy="390.0" r="2" stroke="blue" fill="blue" />
  <circle cx="485.2627944162883" cy="445.0" r="2" stroke="blue" fill="blue" />
  <circle cx="445.0" cy="485.2627944162882" r="2" stroke="blue" fill="blue" />
  <circle cx="390.0" cy="500.0" r="2" stroke="blue" fill="blue" />
  <circle cx="335.0" cy="485.2627944162883" r="2" stroke="green" fill="green" />
  <circle cx="294.7372055837117" cy="445.0" r="2" stroke="green" fill="green" />
  <circle cx="280.0" cy="390.0" r="2" stroke="green" fill="green" />
  <circle cx="294.7372055837118" cy="335.0" r="2" stroke="green" fill="green" />
  <circle cx="334.99999999999994" cy="294.7372055837118" r="2" stroke="blue" fill="blue" />
  <circle cx="390.0" cy="280.0" r="2" stroke="blue" fill="blue" />
  <circle cx="445.0" cy="294.7372055837118" r="2" stroke="blue" fill="blue" />
  <circle cx="485.2627944162882" cy="334.99999999999994" r="2" stroke="blue" fill="blue" />
  <circle cx="510.0" cy="390.0" r="2" stroke="blue" fill="blue" />
  <circle cx="493.92304845413264" cy="450.0" r="2" stroke="blue" fill="blue" />
  <circle cx="450.0" cy="493.92304845413264" r="2" stroke="blue" fill="blue" />
  <circle cx="390.0" cy="510.0" r="2" stroke="blue" fill="blue" />
  <circle cx="330.0" cy="493.92304845413264" r="2" stroke="green" fill="green" />
  <circle cx="286.07695154586736" cy="450.0" r="2" stroke="green" fill="green" />
  <circle cx="270.0" cy="390.0" r="2" stroke="green" fill="green" />
  <circle cx="286.07695154586736" cy="330.0" r="2" stroke="green" fill="green" />
  <circle cx="329.99999999999994" cy="286.07695154586736" r="2" stroke="blue" fill="blue" />
  <circle cx="390.0" cy="270.0" r="2" stroke="blue" fill="blue" />
  <circle cx="450.0" cy="286.07695154586736" r="2" stroke="blue" fill="blue" />
  <circle cx="493.92304845413264" cy="329.99999999999994" r="2" stroke="blue" fill="blue" />
  <circle cx="520.0" cy="390.0" r="2" stroke="blue" fill="blue" />
  <circle cx="502.58330249197707" cy="455.0" r="2" stroke="blue" fill="blue" />
  <circle cx="455.0" cy="502.583302491977" r="2" stroke="blue" fill="blue" />
  <circle cx="390.0" cy="520.0" r="2" stroke="blue" fill="blue" />
  <circle cx="325.0" cy="502.58330249197707" r="2" stroke="green" fill="green" />
  <circle cx="277.41669750802293" cy="455.0" r="2" stroke="green" fill="green" />
  <circle cx="260.0" cy="390.0" r="2" stroke="green" fill="green" />
  <circle cx="277.416697508023" cy="325.0" r="2" stroke="green" fill="green" />
  <circle cx="324.99999999999994" cy="277.416697508023" r="2" stroke="blue" fill="blue" />
  <circle cx="390.0" cy="260.0" r="2" stroke="blue" fill="blue" />
  <circle cx="455.0" cy="277.416697508023" r="2" stroke="blue" fill="blue" />
  <circle cx="502.583302491977" cy="324.99999999999994" r="2" stroke="blue" fill="blue" />
  <circle cx="530.0" cy="390.0" r="2" stroke="blue" fill="blue" />
  <circle cx="511.24355652982143" cy="460.0" r="2" stroke="blue" fill="blue" />
  <circle cx="460.0" cy="511.2435565298214" r="2" stroke="blue" fill="blue" />
  <circle cx="390.0" cy="530.0" r="2" stroke="blue" fill="blue" />
  <circle cx="320.0" cy="511.24355652982143" r="2" stroke="green" fill="green" />
  <circle cx="268.75644347017857" cy="460.0" r="2" stroke="green" fill="green" />
  <circle cx="250.0" cy="390.0" r="2" stroke="green" fill="green" />
  <circle cx="268.7564434701786" cy="320.0" r="2" stroke="green" fill="green" />
  <circle cx="319.99999999999994" cy="268.7564434701786" r="2" stroke="blue" fill="blue" />
  <circle cx="390.0" cy="250.0" r="2" stroke="blue" fill="blue" />
  <circle cx="460.0" cy="268.7564434701786" r="2" stroke="blue" fill="blue" />
  <circle cx="511.2435565298214" cy="319.99999999999994" r="2" stroke="blue" fill="blue" />
  <circle cx="540.0" cy="390.0" r="2" stroke="blue" fill="blue" />
  <circle cx="519.9038105676658" cy="465.0" r="2" stroke="blue" fill="blue" />
  <circle cx="465.0" cy="519.9038105676658" r="2" stroke="blue" fill="blue" />
  <circle cx="390.0" cy="540.0" r="2" stroke="blue" fill="blue" />
  <circle cx="315.0" cy="519.9038105676658" r="2" stroke="green" fill="green" />
  <circle cx="260.0961894323342" cy="465.0" r="2" stroke="green" fill="green" />
  <circle cx="240.0" cy="390.0" r="2" stroke="green" fill="green" />
  <circle cx="260.0961894323342" cy="315.0" r="2" stroke="green" fill="green" />
  <circle cx="314.99999999999994" cy="260.09618943233426" r="2" stroke="blue" fill="blue" />
  <circle cx="390.0" cy="240.0" r="2" stroke="blue" fill="blue" />
  <circle cx="465.0" cy="260.0961894323342" r="2" stroke="green" fill="green" />
  <circle cx="519.9038105676657" cy="314.99999999999994" r="2" stroke="blue" fill="blue" />
  <circle cx="550.0" cy="390.0" r="2" stroke="blue" fill="blue" />
  <circle cx="528.5640646055102" cy="470.0" r="2" stroke="green" fill="green" />
  <circle cx="470.0" cy="528.5640646055101" r="2" stroke="blue" fill="blue" />
  <circle cx="390.0" cy="550.0" r="2" stroke="blue" fill="blue" />
  <circle cx="310.0" cy="528.5640646055102" r="2" stroke="green" fill="green" />
  <circle cx="251.4359353944898" cy="470.0" r="2" stroke="green" fill="green" />
  <circle cx="230.0" cy="390.0" r="2" stroke="green" fill="green" />
  <circle cx="251.43593539448983" cy="310.0" r="2" stroke="green" fill="green" />
  <circle cx="309.99999999999994" cy="251.43593539448986" r="2" stroke="blue" fill="blue" />
  <circle cx="389.99999999999994" cy="230.0" r="2" stroke="blue" fill="blue" />
  <circle cx="470.0" cy="251.43593539448983" r="2" stroke="green" fill="green" />
  <circle cx="528.5640646055101" cy="309.99999999999994" r="2" stroke="blue" fill="blue" />
  <circle cx="560.0" cy="390.0" r="2" stroke="blue" fill="blue" />
  <circle cx="537.2243186433545" cy="475.0" r="2" stroke="green" fill="green" />
  <circle cx="475.0" cy="537.2243186433545" r="2" stroke="blue" fill="blue" />
  <circle cx="390.0" cy="560.0" r="2" stroke="blue" fill="blue" />
  <circle cx="305.0" cy="537.2243186433545" r="2" stroke="green" fill="green" />
  <circle cx="242.7756813566454" cy="475.0" r="2" stroke="green" fill="green" />
  <circle cx="220.0" cy="390.0" r="2" stroke="green" fill="green" />
  <circle cx="242.77568135664544" cy="305.0" r="2" stroke="green" fill="green" />
  <circle cx="304.99999999999994" cy="242.77568135664546" r="2" stroke="blue" fill="blue" />
  <circle cx="389.99999999999994" cy="220.0" r="2" stroke="blue" fill="blue" />
  <circle cx="475.0" cy="242.77568135664544" r="2" stroke="green" fill="green" />
  <circle cx="537.2243186433545" cy="304.99999999999994" r="2" stroke="blue" fill="blue" />
  <circle cx="570.0" cy="390.0" r="2" stroke="blue" fill="blue" />
  <circle cx="545.884572681199" cy="480.0" r="2" stroke="green" fill="green" />
  <circle cx="480.0" cy="545.884572681199" r="2" stroke="blue" fill="blue" />
  <circle cx="390.0" cy="570.0" r="2" stroke="blue" fill="blue" />
  <circle cx="300.0" cy="545.884572681199" r="2" stroke="green" fill="green" />
  <circle cx="234.11542731880104" cy="480.0" r="2" stroke="green" fill="green" />
  <circle cx="210.0" cy="390.0" r="2" stroke="green" fill="green" />
  <circle cx="234.11542731880104" cy="300.0" r="2" stroke="green" fill="green" />
  <circle cx="299.9999999999999" cy="234.1154273188011" r="2" stroke="blue" fill="blue" />
  <circle cx="389.99999999999994" cy="210.0" r="2" stroke="blue" fill="blue" />
  <circle cx="480.0" cy="234.11542731880104" r="2" stroke="green" fill="green" />
  <circle cx="545.884572681199" cy="299.9999999999999" r="2" stroke="blue" fill="blue" />
  <circle cx="580.0" cy="390.0" r="2" stroke="blue" fill="blue" />
  <circle cx="554.5448267190434" cy="485.0" r="2" stroke="green" fill="green" />
  <circle cx="485.0" cy="554.5448267190434" r="2" stroke="blue" fill="blue" />
  <circle cx="390.0" cy="580.0" r="2" stroke="blue" fill="blue" />
  <circle cx="295.0" cy="554.5448267190434" r="2" stroke="green" fill="green" />
  <circle cx="225.45517328095664" cy="485.0" r="2" stroke="green" fill="green" />
  <circle cx="200.0" cy="390.0" r="2" stroke="green" fill="green" />
  <circle cx="225.45517328095667" cy="295.0" r="2" stroke="green" fill="green" />
  <circle cx="294.9999999999999" cy="225.4551732809567" r="2" stroke="blue" fill="blue" />
  <circle cx="389.99999999999994" cy="200.0" r="2" stroke="blue" fill="blue" />
  <circle cx="485.0" cy="225.45517328095667" r="2" stroke="green" fill="green" />
  <circle cx="554.5448267190433" cy="294.9999999999999" r="2" stroke="blue" fill="blue" />
  <circle cx="590.0" cy="390.0" r="2" stroke="blue" fill="blue" />
  <circle cx="563.2050807568878" cy="490.0" r="2" stroke="green" fill="green" />
  <circle cx="490.0" cy="563.2050807568877" r="2" stroke="blue" fill="blue" />
  <circle cx="390.0" cy="590.0" r="2" stroke="blue" fill="blue" />
  <circle cx="290.0" cy="563.2050807568878" r="2" stroke="green" fill="green" />
  <circle cx="216.79491924311225" cy="490.0" r="2" stroke="green" fill="green" />
  <circle cx="190.0" cy="390.0" r="2" stroke="green" fill="green" />
  <circle cx="216.79491924311228" cy="290.0" r="2" stroke="green" fill="green" />
  <circle cx="289.9999999999999" cy="216.79491924311233" r="2" stroke="blue" fill="blue" />
  <circle cx="389.99999999999994" cy="190.0" r="2" stroke="blue" fill="blue" />
  <circle cx="490.0" cy="216.79491924311228" r="2" stroke="green" fill="green" />
  <circle cx="563.2050807568877" cy="289.9999999999999" r="2" stroke="blue" fill="blue" />
  <circle cx="600.0" cy="390.0" r="2" stroke="blue" fill="blue" />
  <circle cx="571.8653347947321" cy="495.0" r="2" stroke="green" fill="green" />
  <circle cx="495.0" cy="571.8653347947321" r="2" stroke="green" fill="green" />
  <circle cx="390.0" cy="600.0" r="2" stroke="blue" fill="blue" />
  <circle cx="285.0" cy="571.8653347947321" r="2" stroke="green" fill="green" />
  <circle cx="208.13466520526788" cy="495.0" r="2" stroke="green" fill="green" />
  <circle cx="180.0" cy="390.0" r="2" stroke="green" fill="green" />
  <circle cx="208.1346652052679" cy="285.0" r="2" stroke="green" fill="green" />
  <circle cx="284.9999999999999" cy="208.13466520526794" r="2" stroke="blue" fill="blue" />
  <circle cx="389.99999999999994" cy="180.0" r="2" stroke="blue" fill="blue" />
  <circle cx="495.0" cy="208.1346652052679" r="2" stroke="green" fill="green" />
  <circle cx="571.865334794732" cy="284.9999999999999" r="2" stroke="blue" fill="blue" />
  <circle cx="610.0" cy="390.0" r="2" stroke="blue" fill="blue" />
  <circle cx="580.5255888325765" cy="500.0" r="2" stroke="green" fill="green" />
  <circle cx="500.0" cy="580.5255888325764" r="2" stroke="green" fill="green" />
  <circle cx="390.0" cy="610.0" r="2" stroke="blue" fill="blue" />
  <circle cx="280.00000000000006" cy="580.5255888325765" r="2" stroke="green" fill="green" />
  <circle cx="199.47441116742348" cy="500.0" r="2" stroke="green" fill="green" />
  <circle cx="170.0" cy="390.0" r="2" stroke="green" fill="green" />
  <circle cx="199.4744111674235" cy="280.0" r="2" stroke="green" fill="green" />
  <circle cx="279.9999999999999" cy="199.47441116742357" r="2" stroke="blue" fill="blue" />
  <circle cx="389.99999999999994" cy="170.0" r="2" stroke="green" fill="green" />
  <circle cx="500.0" cy="199.4744111674235" r="2" stroke="green" fill="green" />
  <circle cx="580.5255888325764" cy="279.9999999999999" r="2" stroke="blue" fill="blue" />
  <circle cx="620.0" cy="390.0" r="2" stroke="green" fill="green" />
  <circle cx="589.1858428704209" cy="505.0" r="2" stroke="green" fill="green" />
  <circle cx="505.0" cy="589.1858428704209" r="2" stroke="green" fill="green" />
  <circle cx="390.0" cy="620.0" r="2" stroke="blue" fill="blue" />
  <circle cx="275.00000000000006" cy="589.1858428704209" r="2" stroke="blue" fill="blue" />
  <circle cx="190.8141571295791" cy="505.0" r="2" stroke="green" fill="green" />
  <circle cx="160.0" cy="390.0" r="2" stroke="green" fill="green" />
  <circle cx="190.81415712957912" cy="275.0" r="2" stroke="blue" fill="blue" />
  <circle cx="274.9999999999999" cy="190.81415712957917" r="2" stroke="blue" fill="blue" />
  <circle cx="389.99999999999994" cy="160.0" r="2" stroke="green" fill="green" />
  <circle cx="505.0" cy="190.81415712957912" r="2" stroke="green" fill="green" />
  <circle cx="589.1858428704209" cy="274.9999999999999" r="2" stroke="blue" fill="blue" />
  <circle cx="630.0" cy="390.0" r="2" stroke="green" fill="green" />
  <circle cx="597.8460969082653" cy="510.0" r="2" stroke="green" fill="green" />
  <circle cx="510.0" cy="597.8460969082653" r="2" stroke="green" fill="green" />
  <circle cx="390.0" cy="630.0" r="2" stroke="blue" fill="blue" />
  <circle cx="270.00000000000006" cy="597.8460969082653" r="2" stroke="blue" fill="blue" />
  <circle cx="182.15390309173472" cy="510.0" r="2" stroke="green" fill="green" />
  <circle cx="150.0" cy="390.00000000000006" r="2" stroke="green" fill="green" />
  <circle cx="182.15390309173475" cy="270.0" r="2" stroke="blue" fill="blue" />
  <circle cx="269.9999999999999" cy="182.15390309173478" r="2" stroke="blue" fill="blue" />
  <circle cx="389.99999999999994" cy="150.0" r="2" stroke="green" fill="green" />
  <circle cx="510.0" cy="182.15390309173475" r="2" stroke="green" fill="green" />
  <circle cx="597.8460969082653" cy="269.9999999999999" r="2" stroke="blue" fill="blue" />
  <circle cx="640.0" cy="390.0" r="2" stroke="green" fill="green" />
  <circle cx="606.5063509461097" cy="515.0" r="2" stroke="green" fill="green" />
  <circle cx="515.0" cy="606.5063509461097" r="2" stroke="green" fill="green" />
  <circle cx="390.0" cy="640.0" r="2" stroke="blue" fill="blue" />
  <circle cx="265.00000000000006" cy="606.5063509461097" r="2" stroke="blue" fill="blue" />
  <circle cx="173.49364905389032" cy="515.0" r="2" stroke="green" fill="green" />
  <circle cx="140.0" cy="390.00000000000006" r="2" stroke="green" fill="green" />
  <circle cx="173.49364905389035" cy="265.0" r="2" stroke="blue" fill="blue" />
  <circle cx="264.9999999999999" cy="173.4936490538904" r="2" stroke="blue" fill="blue" />
  <circle cx="389.99999999999994" cy="140.0" r="2" stroke="green" fill="green" />
  <circle cx="515.0" cy="173.49364905389035" r="2" stroke="green" fill="green" />
  <circle cx="606.5063509461096" cy="264.9999999999999" r="2" stroke="blue" fill="blue" />
  <circle cx="650.0" cy="390.0" r="2" stroke="green" fill="green" />
  <circle cx="615.1666049839541" cy="520.0" r="2" stroke="green" fill="green" />
  <circle cx="520.0" cy="615.166604983954" r="2" stroke="green" fill="green" />
  <circle cx="390.0" cy="650.0" r="2" stroke="blue" fill="blue" />
  <circle cx="260.00000000000006" cy="615.1666049839541" r="2" stroke="blue" fill="blue" />
  <circle cx="164.83339501604593" cy="520.0" r="2" stroke="green" fill="green" />
  <circle cx="130.0" cy="390.00000000000006" r="2" stroke="green" fill="green" />
  <circle cx="164.83339501604596" cy="260.0" r="2" stroke="blue" fill="blue" />
  <circle cx="259.9999999999999" cy="164.833395016046" r="2" stroke="blue" fill="blue" />
  <circle cx="389.99999999999994" cy="130.0" r="2" stroke="green" fill="green" />
  <circle cx="520.0" cy="164.83339501604596" r="2" stroke="green" fill="green" />
  <circle cx="615.166604983954" cy="259.9999999999999" r="2" stroke="green" fill="green" />
  <circle cx="660.0" cy="390.0" r="2" stroke="green" fill="green" />
  <circle cx="623.8268590217984" cy="525.0" r="2" stroke="green" fill="green" />
  <circle cx="525.0" cy="623.8268590217984" r="2" stroke="green" fill="green" />
  <circle cx="390.0" cy="660.0" r="2" stroke="blue" fill="blue" />
  <circle cx="255.00000000000006" cy="623.8268590217984" r="2" stroke="blue" fill="blue" />
  <circle cx="156.17314097820156" cy="525.0" r="2" stroke="green" fill="green" />
  <circle cx="120.0" cy="390.00000000000006" r="2" stroke="green" fill="green" />
  <circle cx="156.1731409782016" cy="254.99999999999997" r="2" stroke="blue" fill="blue" />
  <circle cx="254.9999999999999" cy="156.17314097820164" r="2" stroke="blue" fill="blue" />
  <circle cx="389.99999999999994" cy="120.0" r="2" stroke="green" fill="green" />
  <circle cx="525.0" cy="156.1731409782016" r="2" stroke="green" fill="green" />
  <circle cx="623.8268590217983" cy="254.9999999999999" r="2" stroke="green" fill="green" />
  <circle cx="670.0" cy="390.0" r="2" stroke="green" fill="green" />
  <circle cx="632.4871130596429" cy="530.0" r="2" stroke="green" fill="green" />
  <circle cx="530.0" cy="632.4871130596428" r="2" stroke="green" fill="green" />
  <circle cx="390.0" cy="670.0" r="2" stroke="blue" fill="blue" />
  <circle cx="250.00000000000006" cy="632.4871130596429" r="2" stroke="blue" fill="blue" />
  <circle cx="147.51288694035716" cy="530.0" r="2" stroke="green" fill="green" />
  <circle cx="110.0" cy="390.00000000000006" r="2" stroke="green" fill="green" />
  <circle cx="147.5128869403572" cy="249.99999999999997" r="2" stroke="blue" fill="blue" />
  <circle cx="249.9999999999999" cy="147.51288694035725" r="2" stroke="blue" fill="blue" />
  <circle cx="389.99999999999994" cy="110.0" r="2" stroke="green" fill="green" />
  <circle cx="530.0" cy="147.5128869403572" r="2" stroke="green" fill="green" />
  <circle cx="632.4871130596428" cy="249.9999999999999" r="2" stroke="green" fill="green" />
  <circle cx="680.0" cy="390.0" r="2" stroke="green" fill="green" />
  <circle cx="641.1473670974872" cy="535.0" r="2" stroke="green" fill="green" />
  <circle cx="535.0" cy="641.1473670974872" r="2" stroke="green" fill="green" />
  <circle cx="390.0" cy="680.0" r="2" stroke="blue" fill="blue" />
  <circle cx="245.00000000000006" cy="641.1473670974872" r="2" stroke="blue" fill="blue" />
  <circle cx="138.85263290251277" cy="535.0" r="2" stroke="green" fill="green" />
  <circle cx="100.0" cy="390.00000000000006" r="2" stroke="green" fill="green" />
  <circle cx="138.8526329025128" cy="244.99999999999997" r="2" stroke="blue" fill="blue" />
  <circle cx="244.99999999999986" cy="138.85263290251288" r="2" stroke="blue" fill="blue" />
  <circle cx="389.99999999999994" cy="100.0" r="2" stroke="green" fill="green" />
  <circle cx="535.0" cy="138.8526329025128" r="2" stroke="green" fill="green" />
  <circle cx="641.1473670974872" cy="244.99999999999986" r="2" stroke="green" fill="green" />
  <circle cx="690.0" cy="390.0" r="2" stroke="green" fill="green" />
  <circle cx="649.8076211353316" cy="540.0" r="2" stroke="green" fill="green" />
  <circle cx="540.0" cy="649.8076211353316" r="2" stroke="green" fill="green" />
  <circle cx="390.0" cy="690.0" r="2" stroke="green" fill="green" />
  <circle cx="240.00000000000006" cy="649.8076211353316" r="2" stroke="blue" fill="blue" />
  <circle cx="130.1923788646684" cy="540.0" r="2" stroke="green" fill="green" />
  <circle cx="90.0" cy="390.00000000000006" r="2" stroke="green" fill="green" />
  <circle cx="130.1923788646684" cy="239.99999999999997" r="2" stroke="blue" fill="blue" />
  <circle cx="239.99999999999986" cy="130.1923788646685" r="2" stroke="green" fill="green" />
  <circle cx="389.99999999999994" cy="90.0" r="2" stroke="green" fill="green" />
  <circle cx="540.0" cy="130.1923788646684" r="2" stroke="green" fill="green" />
  <circle cx="649.8076211353315" cy="239.99999999999986" r="2" stroke="green" fill="green" />
  <circle cx="700.0" cy="390.0" r="2" stroke="green" fill="green" />
  <circle cx="658.467875173176" cy="545.0" r="2" stroke="green" fill="green" />
  <circle cx="545.0" cy="658.467875173176" r="2" stroke="green" fill="green" />
  <circle cx="390.0" cy="700.0" r="2" stroke="green" fill="green" />
  <circle cx="235.00000000000006" cy="658.467875173176" r="2" stroke="blue" fill="blue" />
  <circle cx="121.53212482682397" cy="545.0" r="2" stroke="green" fill="green" />
  <circle cx="80.0" cy="390.00000000000006" r="2" stroke="green" fill="green" />
  <circle cx="121.53212482682403" cy="234.99999999999997" r="2" stroke="blue" fill="blue" />
  <circle cx="234.99999999999986" cy="121.53212482682409" r="2" stroke="green" fill="green" />
  <circle cx="389.99999999999994" cy="80.0" r="2" stroke="green" fill="green" />
  <circle cx="545.0" cy="121.53212482682403" r="2" stroke="green" fill="green" />
  <circle cx="658.4678751731759" cy="234.99999999999986" r="2" stroke="green" fill="green" />
  <circle cx="710.0" cy="390.0" r="2" stroke="green" fill="green" />
  <circle cx="667.1281292110205" cy="550.0" r="2" stroke="green" fill="green" />
  <circle cx="550.0" cy="667.1281292110203" r="2" stroke="green" fill="green" />
  <circle cx="390.0" cy="710.0" r="2" stroke="green" fill="green" />
  <circle cx="230.00000000000006" cy="667.1281292110205" r="2" stroke="blue" fill="blue" />
  <circle cx="112.8718707889796" cy="550.0" r="2" stroke="green" fill="green" />
  <circle cx="70.0" cy="390.00000000000006" r="2" stroke="green" fill="green" />
  <circle cx="112.87187078897966" cy="229.99999999999997" r="2" stroke="blue" fill="blue" />
  <circle cx="229.99999999999986" cy="112.87187078897972" r="2" stroke="green" fill="green" />
  <circle cx="389.99999999999994" cy="70.0" r="2" stroke="green" fill="green" />
  <circle cx="550.0" cy="112.87187078897966" r="2" stroke="green" fill="green" />
  <circle cx="667.1281292110202" cy="229.99999999999986" r="2" stroke="green" fill="green" />
  <circle cx="720.0" cy="390.0" r="2" stroke="green" fill="green" />
  <circle cx="675.7883832488648" cy="555.0" r="2" stroke="green" fill="green" />
  <circle cx="555.0" cy="675.7883832488648" r="2" stroke="green" fill="green" />
  <circle cx="390.0" cy="720.0" r="2" stroke="green" fill="green" />
  <circle cx="225.00000000000006" cy="675.7883832488648" r="2" stroke="green" fill="green" />
  <circle cx="104.21161675113524" cy="555.0" r="2" stroke="green" fill="green" />
  <circle cx="60.0" cy="390.00000000000006" r="2" stroke="green" fill="green" />
  <circle cx="104.21161675113524" cy="224.99999999999997" r="2" stroke="green" fill="green" />
  <circle cx="224.99999999999986" cy="104.21161675113535" r="2" stroke="green" fill="green" />
  <circle cx="389.99999999999994" cy="60.0" r="2" stroke="green" fill="green" />
  <circle cx="555.0" cy="104.21161675113524" r="2" stroke="green" fill="green" />
  <circle cx="675.7883832488646" cy="224.99999999999986" r="2" stroke="green" fill="green" />
  <circle cx="730.0" cy="390.0" r="2" stroke="green" fill="green" />
  <circle cx="684.4486372867092" cy="560.0" r="2" stroke="green" fill="green" />
  <circle cx="560.0" cy="684.4486372867091" r="2" stroke="green" fill="green" />
  <circle cx="390.0" cy="730.0" r="2" stroke="green" fill="green" />
  <circle cx="220.00000000000006" cy="684.4486372867092" r="2" stroke="green" fill="green" />
  <circle cx="95.55136271329081" cy="560.0" r="2" stroke="green" fill="green" />
  <circle cx="50.0" cy="390.00000000000006" r="2" stroke="green" fill="green" />
  <circle cx="95.55136271329087" cy="219.99999999999997" r="2" stroke="green" fill="green" />
  <circle cx="219.99999999999986" cy="95.55136271329093" r="2" stroke="green" fill="green" />
  <circle cx="389.99999999999994" cy="50.0" r="2" stroke="green" fill="green" />
  <circle cx="560.0" cy="95.55136271329087" r="2" stroke="green" fill="green" />
  <circle cx="684.4486372867091" cy="219.99999999999986" r="2" stroke="green" fill="green" />
  <circle cx="740.0" cy="390.0" r="2" stroke="green" fill="green" />
  <circle cx="693.1088913245535" cy="565.0" r="2" stroke="green" fill="green" />
  <circle cx="565.0" cy="693.1088913245535" r="2" stroke="green" fill="green" />
  <circle cx="390.0" cy="740.0" r="2" stroke="green" fill="green" />
  <circle cx="215.00000000000006" cy="693.1088913245535" r="2" stroke="green" fill="green" />
  <circle cx="86.89110867544645" cy="565.0" r="2" stroke="green" fill="green" />
  <circle cx="40.0" cy="390.00000000000006" r="2" stroke="green" fill="green" />
  <circle cx="86.8911086754465" cy="214.99999999999997" r="2" stroke="green" fill="green" />
  <circle cx="214.99999999999986" cy="86.89110867544656" r="2" stroke="green" fill="green" />
  <circle cx="389.99999999999994" cy="40.0" r="2" stroke="green" fill="green" />
  <circle cx="565.0" cy="86.8911086754465" r="2" stroke="green" fill="green" />
  <circle cx="693.1088913245535" cy="214.99999999999986" r="2" stroke="green" fill="green" />
  <circle cx="750.0" cy="390.0" r="2" stroke="green" fill="green" />
  <circle cx="701.7691453623979" cy="570.0" r="2" stroke="green" fill="green" />
  <circle cx="570.0" cy="701.7691453623979" r="2" stroke="green" fill="green" />
  <circle cx="390.0" cy="750.0" r="2" stroke="green" fill="green" />
  <circle cx="210.00000000000006" cy="701.7691453623979" r="2" stroke="green" fill="green" />
  <circle cx="78.23085463760208" cy="570.0" r="2" stroke="green" fill="green" />
  <circle cx="30.0" cy="390.00000000000006" r="2" stroke="green" fill="green" />
  <circle cx="78.23085463760208" cy="209.99999999999997" r="2" stroke="green" fill="green" />
  <circle cx="209.99999999999983" cy="78.23085463760219" r="2" stroke="green" fill="green" />
  <circle cx="389.99999999999994" cy="30.0" r="2" stroke="green" fill="green" />
  <circle cx="570.0" cy="78.23085463760208" r="2" stroke="green" fill="green" />
  <circle cx="701.7691453623978" cy="209.99999999999983" r="2" stroke="green" fill="green" />
  <circle cx="760.0" cy="390.0" r="2" stroke="green" fill="green" />
  <circle cx="710.4293994002423" cy="575.0" r="2" stroke="green" fill="green" />
  <circle cx="575.0" cy="710.4293994002423" r="2" stroke="green" fill="green" />
  <circle cx="390.0" cy="760.0" r="2" stroke="green" fill="green" />
  <circle cx="205.00000000000006" cy="710.4293994002423" r="2" stroke="green" fill="green" />
  <circle cx="69.57060059975765" cy="575.0" r="2" stroke="green" fill="green" />
  <circle cx="20.0" cy="390.00000000000006" r="2" stroke="green" fill="green" />
  <circle cx="69.57060059975771" cy="204.99999999999997" r="2" stroke="green" fill="green" />
  <circle cx="204.99999999999983" cy="69.57060059975782" r="2" stroke="green" fill="green" />
  <circle cx="389.99999999999994" cy="20.0" r="2" stroke="green" fill="green" />
  <circle cx="575.0" cy="69.57060059975771" r="2" stroke="green" fill="green" />
  <circle cx="710.4293994002421" cy="204.99999999999983" r="2" stroke="green" fill="green" />
  <circle cx="770.0" cy="390.0" r="2" stroke="green" fill="green" />
  <circle cx="719.0896534380868" cy="580.0" r="2" stroke="green" fill="green" />
  <circle cx="580.0" cy="719.0896534380867" r="2" stroke="green" fill="green" />
  <circle cx="390.0" cy="770.0" r="2" stroke="green" fill="green" />
  <circle cx="200.00000000000006" cy="719.0896534380868" r="2" stroke="green" fill="green" />
  <circle cx="60.910346561913286" cy="580.0" r="2" stroke="green" fill="green" />
  <circle cx="10.0" cy="390.00000000000006" r="2" stroke="green" fill="green" />
  <circle cx="60.91034656191334" cy="199.99999999999997" r="2" stroke="green" fill="green" />
  <circle cx="199.99999999999983" cy="60.9103465619134" r="2" stroke="green" fill="green" />
  <circle cx="389.99999999999994" cy="10.0" r="2" stroke="green" fill="green" />
  <circle cx="580.0" cy="60.91034656191334" r="2" stroke="green" fill="green" />
  <circle cx="719.0896534380865" cy="199.99999999999983" r="2" stroke="green" fill="green" />
  <circle cx="780.0" cy="390.0" r="2" stroke="green" fill="green" />
  <circle cx="727.7499074759311" cy="585.0" r="2" stroke="green" fill="green" />
  <circle cx="585.0" cy="727.749907475931" r="2" stroke="green" fill="green" />
  <circle cx="390.0" cy="780.0" r="2" stroke="green" fill="green" />
  <circle cx="195.00000000000006" cy="727.7499074759311" r="2" stroke="green" fill="green" />
  <circle cx="52.25009252406892" cy="585.0" r="2" stroke="green" fill="green" />
  <circle cx="0.0" cy="390.00000000000006" r="2" stroke="green" fill="green" />
  <circle cx="52.250092524068975" cy="194.99999999999994" r="2" stroke="green" fill="green" />
  <circle cx="194.99999999999983" cy="52.25009252406903" r="2" stroke="green" fill="green" />
  <circle cx="389.99999999999994" cy="0.0" r="2" stroke="green" fill="green" />
  <circle cx="585.0" cy="52.250092524068975" r="2" stroke="green" fill="green" />
  <circle cx="727.749907475931" cy="194.99999999999983" r="2" stroke="green" fill="green" />
</svg>
